<?xml version="1.0" standalone="no"?>

<svg version="1.0"
	xmlns="http://www.w3.org/2000/svg" 
	width="400.000000pt" 
	height="240.000000pt" 
	viewBox="0 0 400.000000 240.000000" 
	preserveAspectRatio="xMidYMid meet"
>
	<g transform="translate(0.000000,240.000000) scale(0.100000,-0.100000)"  stroke="none" fill="midnightblue">
		<path 
			fill="red"
			d="M1373 2388 c-11 -17 -6 -278 7 -388 12 -98 98 -563 110 -594 16 -42
			49 -61 105 -60 67 2 106 21 127 63 l17 34 6 -29 c20 -86 28 -105 53 -125 23
			-18 36 -20 80 -16 64 7 99 28 116 69 l13 31 12 -64 c18 -105 56 -138 146 -125
			66 10 105 49 105 106 l0 41 29 -22 c26 -19 38 -21 93 -16 54 5 67 10 90 36 16
			18 28 43 28 59 0 15 -28 181 -62 369 -65 355 -67 359 -108 333 -12 -7 -5 -57
			48 -341 56 -302 60 -334 47 -359 -22 -43 -67 -53 -104 -22 -18 14 -29 58 -69
			274 -27 142 -51 261 -55 264 -3 4 -27 1 -52 -6 -39 -11 -46 -16 -41 -34 16
			-67 96 -530 96 -555 0 -61 -80 -89 -120 -42 -10 11 -34 122 -64 287 -27 148
			-52 273 -56 277 -4 4 -28 3 -54 -4 -43 -11 -47 -14 -42 -38 26 -123 66 -356
			66 -385 0 -66 -78 -97 -120 -47 -9 10 -30 99 -49 210 -19 106 -38 194 -42 197
			-5 2 -29 -1 -54 -7 -40 -10 -46 -15 -41 -33 2 -11 15 -74 27 -139 20 -108 20
			-119 5 -141 -28 -44 -94 -46 -117 -5 -13 24 -70 313 -94 479 -10 63 -20 196
			-24 295 -6 174 -7 180 -28 183 -11 2 -25 -3 -30 -10z"
		/>
		<path 
			fill="red"
			d="M2500 2383 c0 -5 11 -24 24 -41 54 -74 58 -169 10 -288 -19 -49 -25
			-77 -21 -106 9 -69 24 -68 56 3 70 155 82 282 35 376 -27 54 -32 58 -66 61
			-21 2 -38 -1 -38 -5z"
		/>
		<path 
			d="M415 1020 c-203 -29 -334 -136 -392 -320 -27 -87 -24 -304 6 -389 69
			-197 209 -292 451 -307 113 -7 233 12 314 49 65 30 148 104 183 165 84 144 93
			395 19 557 -52 113 -173 207 -304 234 -76 16 -207 21 -277 11z m200 -259 c53
			-29 79 -99 83 -222 7 -175 -32 -263 -126 -288 -95 -26 -179 20 -207 112 -16
			54 -22 221 -9 273 12 49 43 103 69 120 54 36 131 38 190 5z"
		/>
		<path 
			d="M2669 1025 c-4 -3 -3 -25 2 -48 17 -88 33 -79 -193 -111 -112 -15
      -210 -29 -218 -32 -13 -3 -15 -53 -12 -386 1 -211 5 -393 7 -405 8 -34 63 -45
			199 -41 157 4 156 3 156 179 l0 129 98 0 c220 1 339 57 401 190 23 49 26 68
			26 165 0 97 -3 116 -26 165 -58 126 -150 174 -369 195 -36 3 -68 3 -71 0z m54
			-266 c56 -26 69 -121 23 -167 -23 -23 -36 -27 -101 -30 l-75 -4 0 106 0 106
			65 0 c35 0 75 -5 88 -11z"
		/>
		<path 
			d="M1190 1000 c-19 -19 -20 -33 -20 -484 0 -442 1 -465 19 -487 19 -23
			24 -24 160 -24 121 0 143 2 158 18 16 16 18 42 21 219 l3 201 144 -216 c165
			-247 145 -232 305 -226 140 6 130 -27 130 430 0 354 -1 379 -17 379 -10 0 -58
			-7 -107 -15 -49 -8 -91 -13 -93 -12 -1 2 -11 55 -20 118 l-18 114 -31 3 c-21
			2 -36 -4 -50 -19 -17 -19 -19 -39 -22 -216 l-4 -196 -135 204 c-74 112 -142
			210 -151 217 -11 8 -55 12 -134 12 -105 0 -120 -2 -138 -20z"
		/>
		<path 
			d="M3296 1004 c-9 -8 -18 -25 -21 -37 -3 -12 -4 -225 -3 -474 3 -419 4
			-454 21 -470 16 -16 46 -18 336 -21 389 -3 366 -11 366 127 0 128 5 125 -200
			129 l-165 3 0 65 0 64 123 0 c157 0 160 2 165 104 5 87 -9 131 -41 140 -12 3
			-73 6 -134 6 l-113 0 0 65 0 65 163 0 c205 0 201 -2 206 114 2 67 -1 92 -13
			111 l-16 25 -330 0 c-285 0 -331 -2 -344 -16z"
		/>
	</g>
</svg>
