<svg 
	version="1.1" 
	id="Layer_1"
	xmlns="http://www.w3.org/2000/svg"
	xmlns:xlink="http://www.w3.org/1999/xlink" 
	x="0px" 
	y="0px" 
	width="100%" 
	viewBox="0 0 512 512" 
	enable-background="new 0 0 512 512" 
	xml:space="preserve"
>
	<path 
		fill="#5C546A" 
		opacity="1.000000" 
		stroke="none" 
		d="M61.468666,513.000000 
			C60.092022,512.040466 59.327274,510.861084 58.251011,510.159851 
			C53.835709,507.283112 50.997177,503.543060 51.000397,498.058075 
			C51.027843,451.308746 51.055763,404.559418 51.532677,357.421600 
			C55.383495,360.499207 59.555920,361.102631 64.268806,361.099213 
			C188.321136,361.008942 312.373566,361.007538 436.425934,361.089966 
			C442.322968,361.093872 447.986572,361.091980 452.801208,357.346313 
			C452.944183,404.292908 452.985321,450.776276 452.984009,497.259644 
			C452.983826,503.720642 449.454559,507.975891 444.013580,510.970520 
			C443.212677,511.411346 442.664886,512.312073 442.000000,513.000000 
			C315.312439,513.000000 188.624878,513.000000 61.468666,513.000000 
			M243.500000,410.000000 
			C204.841064,410.000092 166.182114,409.985535 127.523193,410.012451 
			C119.600121,410.017975 115.082642,414.491638 115.020546,422.330353 
			C114.958496,430.161591 114.948593,437.994354 115.024315,445.825378 
			C115.097260,453.369598 119.650261,457.950836 127.215401,457.953339 
			C210.365417,457.980835 293.515442,457.980438 376.665466,457.954224 
			C384.467224,457.951782 388.899170,453.354034 388.951569,445.411835 
			C388.998840,438.246918 388.985382,431.081329 388.957123,423.916229 
			C388.918152,414.041077 384.850739,410.002380 374.973877,410.001556 
			C331.482574,409.997925 287.991302,410.000000 243.500000,410.000000 
			z"
	/>
	<path 
		fill="#87DBFF" 
		opacity="1.000000" 
		stroke="none" 
		d="M383.532410,1.000005 
			C384.839966,2.344437 385.461243,3.906858 386.552124,5.001203 
			C409.955933,28.479485 433.412354,51.905357 456.632111,75.695961 
			C455.262146,76.704689 454.000183,77.213577 452.992706,78.034683 
			C436.137909,91.771774 410.538757,90.011383 395.084869,72.831886 
			C383.746002,60.226906 371.233612,48.674835 359.191315,36.706783 
			C354.835907,32.378204 350.326691,28.204435 345.887665,23.960028 
			C353.120392,16.488022 360.353119,9.016014 367.292908,1.272004 
			C372.354919,1.000000 377.709869,1.000000 383.532410,1.000005 
			z"
	/>
	<path 
	fill="#EFF2FA" 
	opacity="1.000000" 
	stroke="none" 
	d="M362.852478,156.029007 
		C362.908966,187.905884 362.968903,219.782776 363.019836,251.659653 
		C363.034454,260.792297 363.023132,269.925018 362.669739,279.755157 
		C362.161713,291.697266 362.007690,302.941895 361.397583,314.182800 
		C289.885376,314.178070 218.829300,314.178711 147.773224,314.167908 
		C145.780945,314.167603 143.788712,314.045258 141.837860,313.514343 
		C141.890091,303.579163 141.945526,294.109039 141.867065,284.640045 
		C141.854202,283.088196 141.251755,281.541199 140.921783,279.991974 
		C140.947861,233.680695 141.084763,187.369049 140.923584,141.058411 
		C140.882309,129.198242 149.078964,122.506523 159.035614,122.870163 
		C173.010513,123.380577 187.018112,122.995392 201.767609,123.258675 
		C204.156479,123.663467 205.789322,123.921799 207.422531,123.924042 
		C225.958954,123.949516 244.495422,123.935837 262.837036,124.215256 
		C261.621521,125.050468 260.604767,125.610359 259.579620,126.154488 
		C251.348434,130.523468 245.339767,141.627731 247.278320,149.298813 
		C250.084259,160.402298 259.268707,168.469147 269.808075,168.193436 
		C289.080780,167.689240 308.376831,168.143448 327.660980,167.963638 
		C331.916840,167.923965 336.445953,167.656372 340.354614,166.182220 
		C348.037476,163.284622 355.373138,159.466370 362.852478,156.029007 
		M299.765442,201.137268 
		C297.718658,202.434967 295.357880,203.415131 293.674164,205.079987 
		C278.527832,220.056534 263.476990,235.129990 248.453125,250.229721 
		C244.239929,254.464203 240.208893,258.879944 235.802765,263.519531 
		C227.835342,255.501709 220.484833,248.045792 213.064728,240.659760 
		C208.626953,236.242355 203.949585,235.799286 200.387939,239.299332 
		C196.740723,242.883469 197.295425,247.846069 201.839722,252.340759 
		C210.468643,260.875549 219.111526,269.396271 227.716995,277.954651 
		C233.521637,283.727478 237.542099,283.764130 243.410263,277.902344 
		C263.778351,257.556274 284.136780,237.200470 304.481873,216.831375 
		C311.358307,209.946854 309.860992,204.050201 299.765442,201.137268 
		z"
	/>
	<path 
	fill="#868491" 
	opacity="1.000000" 
	stroke="none" 
	d="M361.853668,314.186523 
		C362.007690,302.941895 362.161713,291.697266 362.680542,280.223328 
		C379.690643,279.995819 396.335968,279.991791 412.981293,280.001801 
		C421.353729,280.006836 424.850616,282.489288 428.209747,290.504791 
		C436.015228,309.130341 443.982513,327.689392 451.597961,346.391937 
		C452.774780,349.282013 452.437408,352.788666 452.743042,356.446625 
		C447.986572,361.091980 442.322968,361.093872 436.425934,361.089966 
		C312.373566,361.007538 188.321136,361.008942 64.268806,361.099213 
		C59.555920,361.102631 55.383495,360.499207 51.648102,356.958435 
		C49.658985,350.296265 52.650471,344.651764 55.108669,338.967865 
		C62.346851,322.231659 69.663246,305.528656 77.058075,288.861084 
		C79.819672,282.636566 84.910530,279.965973 91.630722,279.984802 
		C107.751877,280.029938 123.873230,279.998322 140.458145,279.994843 
		C141.251755,281.541199 141.854202,283.088196 141.867065,284.640045 
		C141.945526,294.109039 141.890091,303.579163 141.511505,313.760071 
		C136.350494,314.642029 131.556320,314.790497 126.764267,314.989777 
		C121.999992,315.187927 119.522804,318.118103 120.062935,322.846405 
		C120.600624,327.553375 123.812309,330.054138 129.488297,330.054840 
		C210.606369,330.064484 291.724457,330.062073 372.842529,330.060516 
		C373.841705,330.060486 374.852203,330.125916 375.838104,330.004181 
		C380.734924,329.399506 383.313843,326.356934 382.998108,321.633514 
		C382.675720,316.810364 380.545258,315.122101 375.085785,314.969849 
		C370.671234,314.846802 366.264099,314.457642 361.853668,314.186523 
		z"
	/>
	<path 
	fill="#FDD7BD" 
	opacity="1.000000" 
	stroke="none" 
	d="M362.989929,155.703445 
		C355.373138,159.466370 348.037476,163.284622 340.354614,166.182220 
		C336.445953,167.656372 331.916840,167.923965 327.660980,167.963638 
		C308.376831,168.143448 289.080780,167.689240 269.808075,168.193436 
		C259.268707,168.469147 250.084259,160.402298 247.278320,149.298813 
		C245.339767,141.627731 251.348434,130.523468 259.579620,126.154488 
		C260.604767,125.610359 261.621521,125.050468 263.117432,123.947433 
		C264.571075,123.271774 265.552948,123.015205 266.527222,123.041504 
		C277.314758,123.332710 288.103333,123.610619 298.886688,124.021538 
		C302.732880,124.168098 303.500732,122.809380 302.272919,119.233170 
		C300.104065,112.915932 295.229462,109.019218 288.550568,109.010109 
		C266.228699,108.979645 243.906631,109.024780 221.584961,108.949654 
		C219.702835,108.943321 217.823013,108.256554 215.942123,107.885902 
		C220.956635,102.429825 225.882751,96.889191 231.004410,91.535614 
		C241.086288,80.997177 251.142822,70.428329 261.467773,60.130657 
		C268.759491,52.858181 278.036835,48.850567 288.151794,49.208500 
		C301.843506,49.693001 315.483978,51.638306 329.144867,52.973209 
		C335.806519,53.624168 342.464630,54.312027 349.893738,54.991161 
		C351.722717,55.769600 352.909149,56.413486 353.823059,57.329315 
		C370.572845,74.114227 387.296997,90.924774 403.995026,107.761185 
		C404.905060,108.678772 405.539276,109.869881 406.301910,110.933655 
		C402.117615,115.539658 398.018585,120.226753 393.731201,124.734695 
		C384.994080,133.921173 376.177551,143.032593 367.333191,152.115997 
		C366.107452,153.374878 364.537811,154.298874 362.989929,155.703445 
		z"
	/>
	<path 
		fill="#70C8FF" 
		opacity="1.000000" 
		stroke="none" 
		d="M406.564911,111.114716 
			C405.539276,109.869881 404.905060,108.678772 403.995026,107.761185 
			C387.296997,90.924774 370.572845,74.114227 353.823059,57.329315 
			C352.909149,56.413486 351.722717,55.769600 350.327332,54.907406 
			C346.756866,51.131660 343.004089,47.775799 340.412811,43.684307 
			C336.809692,37.995174 336.992554,32.734138 342.454773,27.012712 
			C343.368652,26.055468 344.323792,25.137634 345.573761,24.080807 
			C350.326691,28.204435 354.835907,32.378204 359.191315,36.706783 
			C371.233612,48.674835 383.746002,60.226906 395.084869,72.831886 
			C410.538757,90.011383 436.137909,91.771774 452.992706,78.034683 
			C454.000183,77.213577 455.262146,76.704689 456.763428,76.008354 
			C465.913208,83.726959 466.587097,92.859505 458.125885,100.507118 
			C451.477966,106.515778 445.356262,113.109627 439.046051,119.488289 
			C431.070160,127.550705 422.887695,128.667496 414.863831,119.438255 
			C412.366852,116.566162 409.516479,114.001297 406.564911,111.114716 
			z"
	/>
	<path 
	fill="#FAC5AA" 
	opacity="1.000000" 
	stroke="none" 
	d="M215.629456,108.016098 
		C217.823013,108.256554 219.702835,108.943321 221.584961,108.949654 
		C243.906631,109.024780 266.228699,108.979645 288.550568,109.010109 
		C295.229462,109.019218 300.104065,112.915932 302.272919,119.233170 
		C303.500732,122.809380 302.732880,124.168098 298.886688,124.021538 
		C288.103333,123.610619 277.314758,123.332710 266.527222,123.041504 
		C265.552948,123.015205 264.571075,123.271774 263.312317,123.664810 
		C244.495422,123.935837 225.958954,123.949516 207.422531,123.924042 
		C205.789322,123.921799 204.156479,123.663467 202.230820,123.218224 
		C206.397705,117.990349 210.857254,113.068321 215.629456,108.016098 
		z"
	/>
	<path 
	fill="#868491" 
	opacity="1.000000" 
	stroke="none" 
	d="M244.000000,410.000000 
		C287.991302,410.000000 331.482574,409.997925 374.973877,410.001556 
		C384.850739,410.002380 388.918152,414.041077 388.957123,423.916229 
		C388.985382,431.081329 388.998840,438.246918 388.951569,445.411835 
		C388.899170,453.354034 384.467224,457.951782 376.665466,457.954224 
		C293.515442,457.980438 210.365417,457.980835 127.215401,457.953339 
		C119.650261,457.950836 115.097260,453.369598 115.024315,445.825378 
		C114.948593,437.994354 114.958496,430.161591 115.020546,422.330353 
		C115.082642,414.491638 119.600121,410.017975 127.523193,410.012451 
		C166.182114,409.985535 204.841064,410.000092 244.000000,410.000000 
		z"
	/>
	<path 
	fill="#FF8000" 
	opacity="1.000000" 
	stroke="none" 
	d="M361.397583,314.182800 
		C366.264099,314.457642 370.671234,314.846802 375.085785,314.969849 
		C380.545258,315.122101 382.675720,316.810364 382.998108,321.633514 
		C383.313843,326.356934 380.734924,329.399506 375.838104,330.004181 
		C374.852203,330.125916 373.841705,330.060486 372.842529,330.060516 
		C291.724457,330.062073 210.606369,330.064484 129.488297,330.054840 
		C123.812309,330.054138 120.600624,327.553375 120.062935,322.846405 
		C119.522804,318.118103 121.999992,315.187927 126.764267,314.989777 
		C131.556320,314.790497 136.350494,314.642029 141.470093,314.225525 
		C143.788712,314.045258 145.780945,314.167603 147.773224,314.167908 
		C218.829300,314.178711 289.885376,314.178070 361.397583,314.182800 
		z"
	/>
	<path 
	fill="#62D5CE" 
	opacity="1.000000" 
	stroke="none" 
	d="M300.150330,201.115417 
		C309.860992,204.050201 311.358307,209.946854 304.481873,216.831375 
		C284.136780,237.200470 263.778351,257.556274 243.410263,277.902344 
		C237.542099,283.764130 233.521637,283.727478 227.716995,277.954651 
		C219.111526,269.396271 210.468643,260.875549 201.839722,252.340759 
		C197.295425,247.846069 196.740723,242.883469 200.387939,239.299332 
		C203.949585,235.799286 208.626953,236.242355 213.064728,240.659760 
		C220.484833,248.045792 227.835342,255.501709 235.802765,263.519531 
		C240.208893,258.879944 244.239929,254.464203 248.453125,250.229721 
		C263.476990,235.129990 278.527832,220.056534 293.674164,205.079987 
		C295.357880,203.415131 297.718658,202.434967 300.150330,201.115417 
		z"
	/>
</svg>