<?xml version="1.0" standalone="no"?>
<!DOCTYPE svg PUBLIC "-//W3C//DTD SVG 20010904//EN"
 "http://www.w3.org/TR/2001/REC-SVG-20010904/DTD/svg10.dtd">
<svg version="1.0" xmlns="http://www.w3.org/2000/svg"
 width="512.000000pt" height="512.000000pt" viewBox="0 0 512.000000 512.000000"
 preserveAspectRatio="xMidYMid meet">

<g transform="translate(0.000000,512.000000) scale(0.100000,-0.100000)"
fill="#000000" stroke="none">
<path d="M503 865 c2 -720 3 -741 22 -773 11 -18 36 -43 55 -55 l35 -22 1874
-3 c1214 -1 1886 1 1910 8 48 13 100 67 112 116 4 22 8 359 8 749 0 595 -2
706 -13 686 -29 -53 84 -50 -1993 -51 -1505 0 -1938 3 -1959 12 -15 7 -33 26
-40 43 -11 25 -13 -87 -11 -710z m3338 127 l29 -32 0 -171 0 -171 -29 -29 -29
-29 -1300 0 c-1294 0 -1299 0 -1325 20 -15 12 -31 38 -37 58 -11 40 -14 251
-4 301 7 36 46 78 77 84 12 2 599 4 1305 3 l1284 -1 29 -33z"/>
</g>
</svg>
